<svg width="30" height="24" viewBox="0 0 30 24" fill="none" xmlns="http://www.w3.org/2000/svg">
<path d="M26.4667 2.97708H20.0654L19.0564 1.46379C18.8678 1.17935 18.4356 0.948425 18.0951 0.948425H11.9056C11.5645 0.948425 11.1322 1.17935 10.9424 1.46379L9.93396 2.97708H3.53394C1.95313 2.97708 0.666626 4.26262 0.666626 5.84312V21.1324C0.666626 22.7138 1.95313 24 3.53394 24H26.4667C28.0476 24 29.3334 22.7135 29.3334 21.1324V5.84312C29.3334 4.26262 28.0476 2.97708 26.4667 2.97708ZM5.11476 8.57507C4.2229 8.57507 3.49986 7.85203 3.49986 6.96017C3.49986 6.06831 4.2229 5.34527 5.11476 5.34527C6.00661 5.34527 6.72965 6.06831 6.72965 6.96017C6.72965 7.85203 6.00661 8.57507 5.11476 8.57507ZM15 20.1772C11.3068 20.1772 8.3111 17.1827 8.3111 13.4892C8.3111 9.79436 11.3068 6.79995 15 6.79995C18.6942 6.79995 21.6893 9.79436 21.6893 13.4892C21.6893 17.1827 18.6939 20.1772 15 20.1772Z" fill="white"/>
<path d="M15 17.5796C17.2594 17.5796 19.0911 15.748 19.0911 13.4885C19.0911 11.2291 17.2594 9.39746 15 9.39746C12.7406 9.39746 10.9089 11.2291 10.9089 13.4885C10.9089 15.748 12.7406 17.5796 15 17.5796Z" fill="white"/>
</svg>
