<svg width="24" height="24" viewBox="0 0 24 24" fill="none" xmlns="http://www.w3.org/2000/svg">
<path d="M11.9733 6.66699L10.3067 10.3336L6.64001 12.0003L10.3067 13.667L11.9733 17.3336L13.64 13.667L17.3067 12.0003L13.64 10.3336L11.9733 6.66699Z" fill="black"/>
<path d="M17.3867 6.58687L18.64 9.3335L19.8933 6.58687L22.64 5.3335L19.8933 4.08018L18.64 1.3335L17.3867 4.08018L14.64 5.3335L17.3867 6.58687Z" fill="black"/>
<path d="M21.3333 9.33331V21.3333H2.64V2.66669H14.64V0H2.66669C1.2 0 0 1.2 0 2.66669V21.3334C0 22.8 1.2 24 2.66669 24H21.3334C22.8 24 24 22.8 24 21.3333V9.33331H21.3333V9.33331Z" fill="black"/>
</svg>
