<svg width="24" height="15" viewBox="0 0 24 15" fill="none" xmlns="http://www.w3.org/2000/svg">
<path d="M13.2878 14H10.3792L9.2229 10.9919H3.92944L2.83643 14H0L5.15796 0.757324H7.98535L13.2878 14ZM8.36475 8.76074L6.54004 3.84668L4.75146 8.76074H8.36475ZM16.594 7.3335L14.2905 6.91797C14.5495 5.99056 14.9951 5.30404 15.6274 4.8584C16.2598 4.41276 17.1992 4.18994 18.4458 4.18994C19.578 4.18994 20.4211 4.32544 20.9751 4.59644C21.5291 4.86141 21.9176 5.20166 22.1404 5.61719C22.3692 6.02669 22.4836 6.78247 22.4836 7.88452L22.4565 10.8474C22.4565 11.6905 22.4957 12.3138 22.574 12.7173C22.6583 13.1147 22.8118 13.5423 23.0347 14H20.5234C20.4572 13.8314 20.3759 13.5815 20.2795 13.2502C20.2374 13.0997 20.2073 13.0003 20.1892 12.9521C19.7556 13.3737 19.2919 13.6899 18.7981 13.9006C18.3043 14.1114 17.7773 14.2168 17.2173 14.2168C16.2297 14.2168 15.4498 13.9488 14.8777 13.4128C14.3116 12.8769 14.0286 12.1994 14.0286 11.3804C14.0286 10.8384 14.158 10.3566 14.417 9.93506C14.6759 9.50749 15.0373 9.18229 15.501 8.95947C15.9707 8.73063 16.6452 8.5319 17.5244 8.36328C18.7108 8.14046 19.5328 7.9327 19.9905 7.73999V7.48706C19.9905 6.99927 19.87 6.65299 19.6292 6.44824C19.3883 6.23747 18.9336 6.13208 18.2651 6.13208C17.8135 6.13208 17.4612 6.22241 17.2083 6.40308C16.9553 6.57772 16.7506 6.88786 16.594 7.3335ZM19.9905 9.39307C19.6653 9.50146 19.1504 9.63094 18.4458 9.78149C17.7412 9.93205 17.2805 10.0796 17.0637 10.2241C16.7325 10.459 16.5669 10.7571 16.5669 11.1184C16.5669 11.4737 16.6994 11.7808 16.9644 12.0398C17.2293 12.2987 17.5666 12.4282 17.9761 12.4282C18.4338 12.4282 18.8704 12.2777 19.2859 11.9766C19.593 11.7477 19.7948 11.4677 19.8911 11.1365C19.9574 10.9197 19.9905 10.5072 19.9905 9.89893V9.39307Z" fill="white"/>
</svg>
